<svg width="68" height="44" viewBox="0 0 68 44" fill="none" xmlns="http://www.w3.org/2000/svg">
<path d="M43.8311 22.2093L45.0993 25.3353C45.3336 25.9114 45.979 26.184 46.542 25.9446C47.106 25.7077 47.3735 25.0479 47.1397 24.4714L45.8719 21.3464L43.8311 22.2093Z" />
<path d="M44.677 24.2929L46.7174 23.4299L44.677 24.2929Z" />
<path d="M41.155 15.6116L44.0409 16.8319L41.155 15.6116Z" />
<path d="M42.7254 9.27501C42.7254 10.9361 41.4073 12.2825 39.7821 12.2825C38.1551 12.2825 36.8367 10.9361 36.8367 9.27501C36.8367 7.61418 38.1551 6.26855 39.7821 6.26855C41.407 6.26855 42.7254 7.61418 42.7254 9.27501Z" />
<path d="M41.2529 9.27494C41.2529 10.106 40.5943 10.7793 39.7817 10.7793C38.9681 10.7793 38.3079 10.106 38.3079 9.27494C38.3079 8.44456 38.9681 7.77124 39.7817 7.77124C40.5943 7.77086 41.2529 8.44456 41.2529 9.27494Z" />
<path d="M37.7164 11.4185L33.6884 21.3467L32.6787 25.8021L33.3588 26.0899L35.7295 22.2096L36.2936 20.821C35.8535 19.7353 36.3577 18.4906 37.4206 18.0418L39.7563 12.2814C38.9618 12.2746 38.2431 11.9469 37.7164 11.4185Z" />
<path d="M41.8452 11.4177C41.3183 11.9469 40.5989 12.2746 39.8044 12.281L43.2692 20.8193L45.309 19.9568L41.8452 11.4177Z" />
<path d="M40.8853 4.76447V1.3809C40.8849 0.757337 40.389 0.25293 39.7811 0.25293C39.1711 0.25293 38.6769 0.756655 38.6765 1.3809L38.6769 4.76447H40.8853Z" />
<path d="M39.7818 6.26838C39.9699 6.26838 40.1544 6.28768 40.3329 6.32223V4.76465H39.229V6.32223C39.4082 6.28734 39.5917 6.26838 39.7818 6.26838Z" />
<path d="M24.4491 27.334H20.7761V0.252197H24.4498C25.2614 0.252197 25.919 0.926205 25.919 1.75729V25.8302H25.9187C25.9183 26.6613 25.2607 27.334 24.4491 27.334Z" />
<path d="M24.2659 2.50951C24.5703 2.50951 24.8171 2.25685 24.8171 1.94518C24.8171 1.63352 24.5703 1.38086 24.2659 1.38086C23.9616 1.38086 23.7148 1.63352 23.7148 1.94518C23.7148 2.25685 23.9616 2.50951 24.2659 2.50951Z" />
<path d="M28.49 16.2395C28.49 16.55 28.737 16.8035 29.0411 16.8035C29.3456 16.8035 29.5922 16.55 29.5922 16.2395C29.5922 16.55 29.8395 16.8035 30.1433 16.8035C30.4478 16.8035 30.6944 16.55 30.6944 16.2395C30.6944 16.55 30.4478 16.8035 30.1433 16.8035C29.8395 16.8035 29.5922 16.55 29.5922 16.2395C29.5922 16.55 29.3456 16.8035 29.0411 16.8035C28.737 16.8035 28.49 16.55 28.49 16.2395Z" />
<path d="M29.2249 0.252197C28.8196 0.252197 28.49 0.589708 28.49 1.00542V1.00508V16.8031L29.5919 21.3166L30.6941 16.8031V1.00474V1.00508C30.6941 0.590047 30.3648 0.252536 29.9592 0.252536L29.2249 0.252197Z" fill="#333333"/>
</svg>
